<svg id="Layer_1" data-name="Layer 1" xmlns="http://www.w3.org/2000/svg" xmlns:xlink="http://www.w3.org/1999/xlink" viewBox="0 0 150 48"><defs><style>.cls-1{fill:url(#linear-gradient);}.cls-2{fill:url(#linear-gradient-2);}.cls-3{fill:url(#linear-gradient-3);}.cls-4{fill:url(#linear-gradient-4);}.cls-5{fill:url(#linear-gradient-5);}.cls-6{fill:url(#linear-gradient-6);}.cls-7{fill:url(#linear-gradient-7);}.cls-8{fill:url(#linear-gradient-8);}</style><linearGradient id="linear-gradient" x1="0.97" y1="24.79" x2="158.25" y2="32.71" gradientUnits="userSpaceOnUse"><stop offset="0.14" stop-color="#7c3ce3"/><stop offset="1" stop-color="#b89de3"/></linearGradient><linearGradient id="linear-gradient-2" x1="1.03" y1="23.6" x2="158.31" y2="31.52" xlink:href="#linear-gradient"/><linearGradient id="linear-gradient-3" x1="1.08" y1="22.68" x2="158.36" y2="30.6" xlink:href="#linear-gradient"/><linearGradient id="linear-gradient-4" x1="1.13" y1="21.65" x2="158.41" y2="29.57" xlink:href="#linear-gradient"/><linearGradient id="linear-gradient-5" x1="1.32" y1="18" x2="158.59" y2="25.92" xlink:href="#linear-gradient"/><linearGradient id="linear-gradient-6" x1="1.48" y1="14.82" x2="158.75" y2="22.74" xlink:href="#linear-gradient"/><linearGradient id="linear-gradient-7" x1="1.54" y1="13.61" x2="158.82" y2="21.52" xlink:href="#linear-gradient"/><linearGradient id="linear-gradient-8" x1="1.06" y1="23.01" x2="158.34" y2="30.93" xlink:href="#linear-gradient"/></defs><path class="cls-1" d="M16.33,16.09h6.53V34.5H16.33v-2a6.8,6.8,0,0,1-5.63,2.62A9.16,9.16,0,0,1,7,34.33a8.89,8.89,0,0,1-2.94-2.06,9.45,9.45,0,0,1-2-3.12,10.82,10.82,0,0,1-.7-3.91,10.44,10.44,0,0,1,.68-3.75A9.66,9.66,0,0,1,4,18.38a9.12,9.12,0,0,1,2.9-2.1,9,9,0,0,1,3.73-.77,7.49,7.49,0,0,1,5.71,2.41ZM8.15,25.24a4.24,4.24,0,0,0,1.2,3,4,4,0,0,0,1.33.9,4.36,4.36,0,0,0,1.67.32A4.27,4.27,0,0,0,14,29.15a4.11,4.11,0,0,0,1.33-.9,4.37,4.37,0,0,0,.89-1.33,3.82,3.82,0,0,0,.35-1.61,3.91,3.91,0,0,0-.35-1.63,4.35,4.35,0,0,0-.89-1.35,4.11,4.11,0,0,0-1.33-.9,4.27,4.27,0,0,0-1.63-.32,4.36,4.36,0,0,0-1.67.32,4,4,0,0,0-1.33.9,4.5,4.5,0,0,0-.88,1.31A4,4,0,0,0,8.15,25.24Z"/><path class="cls-2" d="M39.48,20.82A7.63,7.63,0,0,0,36,19.89a2.62,2.62,0,0,0-1.45.36,1.09,1.09,0,0,0-.56,1,1.28,1.28,0,0,0,.09.52,1,1,0,0,0,.39.38,3.8,3.8,0,0,0,.9.32l1.56.36a7.44,7.44,0,0,1,4,1.92,4.87,4.87,0,0,1,1.33,3.53,6.42,6.42,0,0,1-.65,2.91,6.27,6.27,0,0,1-1.79,2.17A8.48,8.48,0,0,1,37,34.69a12.16,12.16,0,0,1-3.56.49,14.41,14.41,0,0,1-7.35-2.12l2.36-4.59a9.28,9.28,0,0,0,5.17,1.86,2.55,2.55,0,0,0,1.47-.39,1.18,1.18,0,0,0,.58-1,1.7,1.7,0,0,0-.09-.59,1,1,0,0,0-.38-.43,3.08,3.08,0,0,0-.84-.36c-.37-.11-.86-.22-1.46-.34a8.37,8.37,0,0,1-4.21-1.81,4.49,4.49,0,0,1-1.2-3.32,6.55,6.55,0,0,1,.57-2.78,5.64,5.64,0,0,1,1.65-2.1,7.88,7.88,0,0,1,2.6-1.33,11.62,11.62,0,0,1,3.39-.47,15.34,15.34,0,0,1,5.92,1.19Z"/><path class="cls-3" d="M57.74,20.82a7.63,7.63,0,0,0-3.52-.93,2.64,2.64,0,0,0-1.45.36,1.11,1.11,0,0,0-.56,1,1.28,1.28,0,0,0,.09.52,1,1,0,0,0,.4.38,3.49,3.49,0,0,0,.9.32l1.56.36a7.51,7.51,0,0,1,4,1.92,4.9,4.9,0,0,1,1.32,3.53,6.42,6.42,0,0,1-.64,2.91,6.19,6.19,0,0,1-1.8,2.17,8.28,8.28,0,0,1-2.76,1.36,12.09,12.09,0,0,1-3.55.49,14.47,14.47,0,0,1-7.36-2.12l2.37-4.59a9.28,9.28,0,0,0,5.17,1.86,2.55,2.55,0,0,0,1.47-.39,1.19,1.19,0,0,0,.57-1,1.7,1.7,0,0,0-.09-.59,1,1,0,0,0-.37-.43,3.32,3.32,0,0,0-.85-.36c-.37-.11-.85-.22-1.45-.34A8.37,8.37,0,0,1,47,25.4a4.49,4.49,0,0,1-1.2-3.32,6.4,6.4,0,0,1,.58-2.78A5.64,5.64,0,0,1,48,17.2a7.69,7.69,0,0,1,2.6-1.33A11.53,11.53,0,0,1,54,15.4a15.38,15.38,0,0,1,5.92,1.19Z"/><path class="cls-4" d="M69.65,26.38q0,4.2,3.95,4.2a3.51,3.51,0,0,0,3.19-1.72h6.28q-1.89,6.31-9.51,6.32a12.71,12.71,0,0,1-4.27-.7,9.7,9.7,0,0,1-3.32-2,8.91,8.91,0,0,1-2.13-3.09,10.32,10.32,0,0,1-.75-4,11.31,11.31,0,0,1,.71-4.14,8.69,8.69,0,0,1,2-3.14,8.92,8.92,0,0,1,3.21-2,12.3,12.3,0,0,1,4.25-.7,12,12,0,0,1,4.2.7,8.56,8.56,0,0,1,3.16,2,8.81,8.81,0,0,1,2,3.25,12.72,12.72,0,0,1,.68,4.32v.68Zm7.61-3.76a3.88,3.88,0,0,0-1.33-2.19,3.72,3.72,0,0,0-2.44-.83,3.78,3.78,0,0,0-2.46.79,3.62,3.62,0,0,0-1.2,2.23Z"/><path class="cls-5" d="M94.52,21.51v13H88v-13H85.87V16.09H88V10.56h6.49v5.53h3.7v5.42Z"/><path class="cls-6" d="M100.73,9A3.53,3.53,0,0,1,101,7.6a4.09,4.09,0,0,1,.79-1.17A3.87,3.87,0,0,1,103,5.65a3.62,3.62,0,0,1,2.84,0,3.67,3.67,0,0,1,2,1.95,3.6,3.6,0,0,1,0,2.83A3.51,3.51,0,0,1,107,11.6a3.57,3.57,0,0,1-1.16.79,3.61,3.61,0,0,1-1.42.29,3.57,3.57,0,0,1-1.42-.29,3.72,3.72,0,0,1-1.17-.79,3.83,3.83,0,0,1-.79-1.17A3.51,3.51,0,0,1,100.73,9Zm6.92,7.07V34.5h-6.49V16.09Z"/><path class="cls-7" d="M119.14,21.51v13h-6.5v-13h-2.33V16.09h2.33V13.32a12.46,12.46,0,0,1,.43-3.66,6.51,6.51,0,0,1,1.15-2.13,8.36,8.36,0,0,1,1.85-1.71,9.27,9.27,0,0,1,2.28-1.11,7.82,7.82,0,0,1,2.4-.39,6.17,6.17,0,0,1,1.53.18,8.22,8.22,0,0,1,1.41.5v5.67a7.07,7.07,0,0,0-1.2-.49,4.45,4.45,0,0,0-1.16-.16,2.54,2.54,0,0,0-.81.13,1.7,1.7,0,0,0-.77.52,2.23,2.23,0,0,0-.49,1.13,12.93,12.93,0,0,0-.12,2v2.3h4.55v5.42Z"/><path class="cls-8" d="M132.81,32l-8.9-15.89h7.53l4.92,9.43,4.77-9.43h7.47L133.81,43.68h-7.28Z"/></svg>