<svg id="Layer_1" data-name="Layer 1" xmlns="http://www.w3.org/2000/svg" xmlns:xlink="http://www.w3.org/1999/xlink" viewBox="0 0 168 168"><defs><style>.cls-1{font-size:28.48px;fill:#141414;font-family:Futura-Bold, Futura;font-weight:700;}.cls-2{letter-spacing:0.01em;}.cls-3{letter-spacing:0.01em;}.cls-4{fill:url(#linear-gradient);}</style><linearGradient id="linear-gradient" x1="45.68" y1="55.84" x2="118.79" y2="55.84" gradientUnits="userSpaceOnUse"><stop offset="0.14" stop-color="#7c3ce3"/><stop offset="1" stop-color="#b89de3"/></linearGradient></defs><text class="cls-1" transform="translate(25 137.75)">ass<tspan class="cls-2" x="48.95" y="0">e</tspan><tspan class="cls-3" x="67.57" y="0">t</tspan><tspan x="78.59" y="0">ify</tspan></text><path class="cls-4" d="M127.5,69.52c-2.88-8.87-11.33-17.51-26.4-15.16-5.9.93-12.35,3.44-18.58,5.86-2.7,1.05-5.36,2.09-7.9,3a.6.6,0,0,1-.78-.69C75.58,54,79.62,39.88,87.62,36a12.27,12.27,0,0,1,5.43-1.26c6.67,0,13.09,5.26,17.73,10.35a.23.23,0,0,0,.36-.27c-2.66-4.4-5.66-9.25-7.81-12.36-5.44-7.89-11.19-11.81-17.58-12H85.1c-12.55,0-21.74,10.94-32.54,28.35a.34.34,0,0,0,0-.1q-1.7,2.82-3.47,5.85c-10.05,17.1-12.42,28.81-6.87,33.87,7.06,6.44,25.71.88,39.66-7.62,15-9.13,26.57-11.92,33.51-8.1,4.69,2.59,7.14,8.2,7.13,16.28a.49.49,0,0,0,.76.4C128.28,86,130.14,77.65,127.5,69.52ZM56.86,59.39a12.71,12.71,0,0,1,1.53-10.46C67.88,34,75.61,25.46,85.1,25.46h.5a13.13,13.13,0,0,1,8.22,3.59.39.39,0,0,1-.26.69h-.51a17.29,17.29,0,0,0-7.61,1.76c-10.38,5-15,21.46-16.82,31.57a1.56,1.56,0,0,1-1.24,1.24,19.23,19.23,0,0,1-3.72.41,7.91,7.91,0,0,1-2.43-.32C58.85,63.64,57.54,61.68,56.86,59.39Z"/></svg>