<svg id="Layer_1" data-name="Layer 1" xmlns="http://www.w3.org/2000/svg" xmlns:xlink="http://www.w3.org/1999/xlink" viewBox="0 0 84 84"><defs><style>.cls-1{fill:url(#linear-gradient);}.cls-2{fill:url(#linear-gradient-2);}</style><linearGradient id="linear-gradient" x1="22.2" y1="32.78" x2="49.13" y2="32.78" gradientUnits="userSpaceOnUse"><stop offset="0.14" stop-color="#7c3ce3"/><stop offset="1" stop-color="#b89de3"/></linearGradient><linearGradient id="linear-gradient-2" x1="0.5" y1="42" x2="83.5" y2="42" xlink:href="#linear-gradient"/></defs><path class="cls-1" d="M43,23.05a12.38,12.38,0,0,1,5.45-1.27h.36a.28.28,0,0,0,.19-.5,9.43,9.43,0,0,0-5.88-2.57h-.36c-6.79,0-12.33,6.11-19.12,16.8a9.12,9.12,0,0,0-1.1,7.5A4.92,4.92,0,0,0,25.7,46.6a5.56,5.56,0,0,0,1.74.23,13.77,13.77,0,0,0,2.66-.29,1.13,1.13,0,0,0,.89-.89C32.33,38.41,35.6,26.65,43,23.05Z"/><path class="cls-2" d="M57.87.5H26.13A25.62,25.62,0,0,0,.5,26.13V57.87A25.62,25.62,0,0,0,26.13,83.5H57.87A25.62,25.62,0,0,0,83.5,57.87V26.13A25.62,25.62,0,0,0,57.87.5Zm12.26,64a.35.35,0,0,1-.55-.29c0-5.78-1.74-9.8-5.1-11.65-5-2.74-13.26-.74-24,5.8-10,6.08-23.34,10.07-28.4,5.45-4-3.62-2.27-12,4.92-24.24q1.27-2.18,2.49-4.19v.07C27.23,23,33.8,15.14,42.79,15.14h.46c4.58.13,8.69,2.94,12.59,8.58,1.54,2.23,3.69,5.71,5.59,8.85a.17.17,0,0,1-.26.2c-3.32-3.65-7.92-7.42-12.69-7.42a8.81,8.81,0,0,0-3.89.91c-5.73,2.78-8.62,12.87-9.87,19a.44.44,0,0,0,.57.5c1.82-.63,3.72-1.37,5.65-2.12,4.46-1.74,9.08-3.53,13.3-4.2,10.79-1.68,16.84,4.5,18.9,10.86C75,56.09,73.7,62.05,70.13,64.49Z"/></svg>