<svg id="Layer_1" data-name="Layer 1" xmlns="http://www.w3.org/2000/svg" viewBox="0 0 84 84"><defs><style>.cls-1{fill:#f4f4f4;}</style></defs><path class="cls-1" d="M73.14,50.27C71.08,43.91,65,37.73,54.24,39.41c-4.22.67-8.84,2.46-13.3,4.2-1.93.75-3.83,1.49-5.65,2.12a.44.44,0,0,1-.57-.5c1.25-6.09,4.14-16.18,9.87-19a8.81,8.81,0,0,1,3.89-.91c4.77,0,9.37,3.77,12.69,7.42a.17.17,0,0,0,.26-.2c-1.9-3.14-4-6.62-5.59-8.85-3.9-5.64-8-8.45-12.59-8.58h-.46c-9,0-15.56,7.83-23.29,20.3v-.07q-1.21,2-2.49,4.19C9.82,51.8,8.12,60.18,12.09,63.8c5.06,4.62,18.41.63,28.4-5.45,10.73-6.54,19-8.54,24-5.8,3.36,1.85,5.11,5.87,5.1,11.65a.35.35,0,0,0,.55.29C73.7,62.05,75,56.09,73.14,50.27ZM22.57,43a9.12,9.12,0,0,1,1.1-7.5C30.46,24.83,36,18.72,42.79,18.72h.36A9.43,9.43,0,0,1,49,21.29a.28.28,0,0,1-.19.5h-.36A12.38,12.38,0,0,0,43,23.05c-7.43,3.6-10.7,15.36-12,22.6a1.13,1.13,0,0,1-.89.89,13.77,13.77,0,0,1-2.66.29,5.56,5.56,0,0,1-1.74-.23A4.92,4.92,0,0,1,22.57,43Z"/></svg>