<svg id="Layer_1" data-name="Layer 1" xmlns="http://www.w3.org/2000/svg" xmlns:xlink="http://www.w3.org/1999/xlink" viewBox="0 0 168 84"><defs><style>.cls-1{font-size:19.11px;fill:#141414;font-family:Futura-Bold, Futura;font-weight:700;}.cls-2{letter-spacing:0.01em;}.cls-3{letter-spacing:0.01em;}.cls-4{fill:url(#linear-gradient);}</style><linearGradient id="linear-gradient" x1="17.67" y1="42" x2="58.99" y2="42" gradientUnits="userSpaceOnUse"><stop offset="0.14" stop-color="#7c3ce3"/><stop offset="1" stop-color="#b89de3"/></linearGradient></defs><text class="cls-1" transform="translate(74.74 47.09)">ass<tspan class="cls-2" x="32.85" y="0">e</tspan><tspan class="cls-3" x="45.35" y="0">t</tspan><tspan x="52.74" y="0">ify</tspan></text><path class="cls-4" d="M63.91,49.73c-1.62-5-6.4-9.9-14.92-8.57a53.92,53.92,0,0,0-10.5,3.31c-1.52.6-3,1.18-4.46,1.68a.34.34,0,0,1-.44-.39c1-4.81,3.26-12.78,7.78-15a7.09,7.09,0,0,1,3.08-.71c3.76,0,7.39,3,10,5.85a.13.13,0,0,0,.21-.15c-1.5-2.49-3.2-5.23-4.42-7-3.07-4.45-6.32-6.67-9.93-6.77H40c-7.09,0-12.28,6.18-18.39,16V38c-.64,1.06-1.3,2.16-2,3.3-5.67,9.67-7,16.29-3.88,19.15,4,3.64,14.53.49,22.42-4.31,8.46-5.16,15-6.74,18.94-4.58,2.65,1.47,4,4.64,4,9.2a.28.28,0,0,0,.43.23C64.35,59,65.41,54.33,63.91,49.73ZM24,44a7.2,7.2,0,0,1,.87-5.92C30.22,29.65,34.59,24.82,40,24.82h.28a7.39,7.39,0,0,1,4.65,2,.22.22,0,0,1-.15.39h-.28a9.83,9.83,0,0,0-4.31,1c-5.86,2.85-8.45,12.13-9.51,17.84a.87.87,0,0,1-.69.71,11.55,11.55,0,0,1-2.1.23,4.62,4.62,0,0,1-1.38-.18A3.91,3.91,0,0,1,24,44Z"/></svg>